<svg id="artwork" xmlns="http://www.w3.org/2000/svg" width="23.5in" height="10.9in" viewBox="0 0 1689.7 788"><title>logo</title><path d="M727.6,434.4c3.4,22,21.7,37.2,46.5,37.2,20.1,0,39.9-7.5,53.2-16.8v33.8c-13,7.4-32.8,13.9-55.7,13.9-44.9,0-78.4-32.8-78.4-79.6,0-44.8,32.6-79.2,76.5-79.2s72.5,33.1,72.5,73.4a68.6,68.6,0,0,1-2.2,17.3Zm-.3-26.3h82.1c-.7-21.4-17.7-35.9-40-35.9S729.5,388.3,727.3,408.1Z"/><path d="M874.4,499.1V375.9H848.7V346.8h27.5V311.2l32.2-7.5v43.1H936v29.1H908.4V499.1Z"/><path d="M971.9,499.1V375.9H946.2V346.8h27.6V311.2l32.2-7.5v43.1h27.5v29.1H1006V499.1Z"/><path d="M1133.6,384.2c-10-6.5-22.6-10.8-34.4-10.8s-19.8,6.5-19.8,14.9c0,6.5,4,9.9,11.4,14.5l24.5,14.6c18.9,11.4,25.4,25.4,25.4,40.2,0,26.3-20.2,44.9-54.5,44.9a102.4,102.4,0,0,1-39.7-8.6v-35c7.8,6.8,23.9,14.2,37.8,14.2s21.1-6.8,21.1-15.8c0-6.2-3.4-11.1-13-16.7l-26-15.5c-15.8-9.3-22-22.9-22-37.8,0-25.4,19.2-43.6,53.9-43.6a110.7,110.7,0,0,1,35.3,6.2Z"/><path d="M1313.2,353.3a105.9,105.9,0,0,1,43.6-9.6c37.8,0,62.2,18.2,62.2,61.3v94.1h-34V485.2c-7.7,10.2-21.1,17.3-37.2,17.3-33.4,0-51.7-23.5-51.7-50.1s21.4-49.9,52.4-49.9c14.8,0,28.8,6.5,36.5,14.6V404.4c0-21.7-14.9-30.4-31.9-30.4-13.9,0-28.2,4.7-39.9,12.1Zm43.9,123.5c15.2,0,27.6-10.8,27.6-24.4s-12.4-24.8-27.6-24.8-27.2,11.1-27.2,24.8S1342.3,476.8,1357.1,476.8Z"/><path d="M1463.6,346.8l31,110.5,31.6-90.7-7.4-19.8h34l41.8,110.5,30.7-110.5h35.6l-46.5,152.3h-35.6l-35.9-93.2-32.8,93.2h-35.9L1428,346.8Z"/><polygon points="663.5 285.5 663.5 499.1 629.5 499.1 629.5 293.2 663.5 285.5"/><polygon points="1274.8 285.5 1274.8 499.1 1240.7 499.1 1240.7 293.2 1274.8 285.5"/><polygon points="392.7 649.1 212.8 649.1 212.8 181.1 28.8 181.1 28.8 733.1 279.5 733.1 392.7 649.1"/><polygon points="85.4 138.9 265.3 138.9 265.3 606.8 449.3 606.8 449.3 54.9 198.6 54.9 85.4 138.9"/></svg>